<?xml version="1.0" encoding="utf-8"?>
<!-- Generator: Adobe Illustrator 19.1.0, SVG Export Plug-In . SVG Version: 6.00 Build 0)  -->
<svg version="1.1" id="Layer_1" xmlns="http://www.w3.org/2000/svg" xmlns:xlink="http://www.w3.org/1999/xlink" x="0px" y="0px"
	 viewBox="0 0 222 87" style="enable-background:new 0 0 222 87;" xml:space="preserve">
<style type="text/css">
	.st0{fill:#2B303B;}
</style>
<g>
	<path class="st0" d="M29.3,10.7h-7.8v42.7h0.1l29.7-42.7h-7.1l0.3-1h14.5l-0.3,1h-6L17,61.9h-1.9l-0.3-51.2H7l0.3-1h22.2L29.3,10.7
		z"/>
	<path class="st0" d="M50.8,31.1l0.3-1h11.4l-8.5,24.4c-0.2,0.7-0.5,1.5-0.7,2.2c-0.2,0.7-0.4,1.5-0.4,2.1c0,0.6,0.2,1.1,0.5,1.5
		c0.3,0.4,0.8,0.6,1.5,0.6c0.8,0,1.5-0.3,2.3-0.8c0.7-0.5,1.4-1.1,2.1-1.8c0.6-0.7,1.2-1.4,1.6-2.1c0.4-0.7,0.7-1.3,0.9-1.7l0.9,0.4
		c-0.2,0.4-0.5,1-0.9,1.8c-0.4,0.8-1,1.6-1.7,2.4c-0.7,0.8-1.6,1.5-2.7,2.1c-1.1,0.6-2.3,0.9-3.7,0.9c-1.6,0-2.8-0.3-3.8-1
		s-1.4-1.7-1.4-3.3c0-0.8,0.1-1.7,0.4-2.7c0.3-1,0.6-1.9,0.9-2.7l7.4-21.1H50.8z M62.7,10.7c0.6-0.6,1.5-1,2.4-1c1,0,1.8,0.3,2.4,1
		s1,1.5,1,2.4c0,1-0.3,1.8-1,2.4c-0.6,0.6-1.5,1-2.4,1c-1,0-1.8-0.3-2.4-1c-0.6-0.6-1-1.5-1-2.4C61.7,12.1,62,11.3,62.7,10.7z"/>
	<path class="st0" d="M88.4,56.7c-0.8,0.9-1.7,1.8-2.7,2.6c-1,0.8-2.2,1.4-3.6,1.9c-1.3,0.5-2.9,0.7-4.5,0.7c-1.8,0-3.4-0.3-4.8-0.9
		c-1.4-0.6-2.6-1.4-3.5-2.3c-0.9-1-1.7-2.1-2.2-3.4c-0.5-1.3-0.8-2.7-0.8-4.2c0-2.4,0.6-5,1.7-7.5c1.2-2.6,2.7-4.9,4.6-7.1
		c1.9-2.1,4.1-3.9,6.6-5.3c2.5-1.4,5-2.1,7.7-2.1c0.8,0,1.6,0.1,2.4,0.3c0.8,0.2,1.5,0.5,2.1,0.9c0.6,0.4,1.1,1,1.5,1.8
		c0.4,0.7,0.6,1.7,0.6,2.8c0,1.6-0.4,2.6-1.2,3.1c-0.8,0.5-1.6,0.7-2.5,0.7c-0.9,0-1.5-0.2-1.8-0.5c-0.3-0.4-0.5-0.8-0.5-1.3
		c0-0.6,0.1-1,0.3-1.4c0.2-0.4,0.4-0.7,0.7-1c0.3-0.3,0.5-0.6,0.7-1c0.2-0.4,0.3-0.8,0.3-1.4c0-0.8-0.3-1.3-0.8-1.6
		c-0.6-0.3-1.3-0.4-2.3-0.4c-1.5,0-3,0.4-4.3,1.2c-1.3,0.8-2.6,1.8-3.7,3.1c-1.1,1.3-2.1,2.7-3,4.4c-0.9,1.6-1.6,3.3-2.2,5
		c-0.6,1.7-1.1,3.4-1.4,5.1c-0.3,1.7-0.5,3.2-0.5,4.6c0,2.1,0.6,3.8,1.8,5.3c1.2,1.4,3,2.2,5.4,2.2c1.3,0,2.6-0.3,3.7-0.8
		c1.1-0.5,2.1-1.1,3.1-1.9c0.9-0.8,1.7-1.6,2.4-2.5c0.7-0.9,1.2-1.7,1.7-2.4l1,0.6C89.9,54.8,89.2,55.7,88.4,56.7z"/>
	<path class="st0" d="M111.8,23l-2.6,7.1h7.8l-0.3,1h-7.8L100.7,54c-0.2,0.7-0.5,1.5-0.7,2.2c-0.2,0.8-0.4,1.5-0.4,2.3
		c0,0.7,0.2,1.3,0.5,1.7c0.4,0.4,0.9,0.6,1.8,0.6c0.9,0,1.7-0.3,2.4-0.8c0.8-0.5,1.5-1.1,2.1-1.8c0.6-0.7,1.2-1.4,1.6-2.1
		c0.4-0.7,0.7-1.3,0.9-1.7l0.9,0.4c-0.2,0.4-0.5,1-0.9,1.8c-0.4,0.8-1,1.6-1.7,2.4c-0.7,0.8-1.6,1.5-2.7,2.1s-2.4,0.9-3.9,0.9
		c-1.8,0-3.2-0.4-4.1-1.3c-0.9-0.9-1.4-2-1.4-3.2c0-1,0.2-2.1,0.5-3.3c0.4-1.2,0.7-2.3,1.1-3.3l7.1-19.6h-6.5l0.3-1h6.5l2.6-7.1
		H111.8z"/>
	<path class="st0" d="M115.2,41.6c1.2-2.5,2.7-4.7,4.6-6.5c1.8-1.8,3.9-3.3,6.2-4.3c2.3-1.1,4.4-1.6,6.5-1.6c1.9,0,3.5,0.4,4.9,1.2
		c1.4,0.8,2.5,1.8,3.5,3c0.9,1.2,1.6,2.5,2,4c0.4,1.4,0.6,2.8,0.6,4.2c0,2.8-0.6,5.4-1.8,7.9c-1.2,2.5-2.7,4.6-4.5,6.5
		c-1.8,1.9-3.9,3.3-6.1,4.4s-4.4,1.6-6.4,1.6c-1.7,0-3.3-0.3-4.6-1c-1.4-0.7-2.5-1.6-3.5-2.7c-1-1.1-1.7-2.4-2.3-3.9
		c-0.5-1.5-0.8-3-0.8-4.6C113.4,46.8,114,44.1,115.2,41.6z M119.9,59.1c1.2,1.2,2.7,1.8,4.5,1.8c1.5,0,2.9-0.4,4.2-1.3
		c1.3-0.9,2.5-2,3.5-3.4c1.1-1.4,2-3,2.8-4.7c0.8-1.7,1.5-3.5,2.1-5.2c0.6-1.7,1-3.4,1.3-4.9c0.3-1.5,0.4-2.8,0.4-3.7
		c0-2.3-0.5-4.1-1.5-5.5c-1-1.3-2.7-2-5.1-2c-1.4,0-2.7,0.4-4,1.2c-1.2,0.8-2.4,1.9-3.4,3.2c-1,1.3-2,2.8-2.8,4.5
		c-0.8,1.7-1.5,3.4-2.1,5.1c-0.6,1.8-1,3.5-1.3,5.1c-0.3,1.7-0.4,3.1-0.4,4.4C118.2,56.1,118.8,58,119.9,59.1z"/>
	<path class="st0" d="M154.7,35c0.4-1.3,0.8-2.6,1.2-3.9h-6.3l0.3-1h11.1c-0.2,1-0.6,2.3-1,3.8c-0.5,1.5-0.9,3-1.5,4.5l0.1,0.1
		c0.5-0.7,1.1-1.6,1.8-2.6c0.7-1,1.5-2,2.4-2.9c0.9-0.9,1.9-1.7,3-2.4c1.1-0.6,2.3-1,3.5-1c1.8,0,3.1,0.5,4.1,1.5
		c0.9,1,1.4,2.1,1.3,3.2c0,0.8-0.1,1.4-0.4,1.9c-0.3,0.5-0.6,0.9-1,1.2c-0.4,0.3-0.8,0.4-1.3,0.5c-0.4,0.1-0.8,0.1-1.2,0.1
		c-0.7,0-1.2-0.2-1.7-0.5c-0.4-0.3-0.6-0.8-0.6-1.5c0-0.5,0.1-0.9,0.3-1.2c0.2-0.3,0.4-0.5,0.7-0.8c0.2-0.2,0.5-0.5,0.7-0.8
		c0.2-0.3,0.3-0.7,0.3-1.2c0-0.5-0.2-0.9-0.6-1.2c-0.4-0.3-0.9-0.4-1.4-0.4c-0.9,0-2,0.5-3.2,1.4c-1.2,0.9-2.4,2.1-3.6,3.6
		c-1.2,1.5-2.3,3.1-3.3,5c-1.1,1.9-1.9,3.7-2.6,5.6L150.7,61h-5l7.8-22.2C153.9,37.5,154.3,36.3,154.7,35z"/>
	<path class="st0" d="M176.5,35.6c0.3-1.1,0.7-2.1,1.3-3c0.6-1,1.2-1.8,2.1-2.4c0.8-0.7,1.9-1,3.2-1c1.5,0,2.8,0.4,3.9,1.2
		c1,0.8,1.8,1.8,2.4,3c0.6,1.2,1,2.5,1.3,3.9c0.3,1.4,0.4,2.7,0.4,3.9c0,3.2-0.2,5.9-0.5,8.2c-0.4,2.3-0.7,4.2-1,5.7h0.1l11-19.9
		c0.4-0.7,0.8-1.4,1.2-2.2c0.4-0.7,0.9-1.4,1.4-1.9c0.5-0.6,1.1-1,1.8-1.4c0.7-0.4,1.5-0.5,2.4-0.5c1.2,0,2,0.3,2.4,0.9
		c0.5,0.6,0.7,1.2,0.7,1.9c0,0.9-0.3,1.7-0.9,2.2c-0.6,0.6-1.3,0.9-2.3,0.9c-0.9,0-1.4-0.4-1.4-1.3c0-0.5,0.1-0.9,0.4-1.2
		c0.3-0.3,0.4-0.6,0.4-1c0-0.7-0.3-1-1-0.9c-0.6,0-1.2,0.5-1.9,1.3c-0.7,0.8-1.5,2.1-2.6,4l-13.1,23.8l-4.2,7.8
		c-0.8,1.5-1.7,3-2.6,4.5c-0.9,1.4-1.8,2.7-2.8,3.8c-1,1.1-2.1,2-3.2,2.7c-1.1,0.7-2.3,1-3.5,1c-1.8,0-3.3-0.4-4.4-1.3
		c-1.1-0.9-1.7-2.1-1.7-3.6c0-1.2,0.4-2.1,1.1-2.5c0.7-0.4,1.5-0.6,2.3-0.6c0.6,0,1.1,0.2,1.5,0.5c0.4,0.3,0.6,0.8,0.6,1.3
		c0,0.4,0,0.8-0.1,1c-0.1,0.2-0.2,0.4-0.3,0.6c-0.1,0.2-0.2,0.5-0.3,0.7c-0.1,0.3-0.1,0.6-0.1,1.1c0,0.5,0.2,1,0.7,1.3
		c0.5,0.3,1,0.5,1.8,0.5c1.3,0,2.7-0.9,4.2-2.6c1.5-1.7,2.8-4,4-6.8s2.2-6,3-9.6s1.2-7.3,1.2-11.1c0-3.7-0.1-6.8-0.3-9.1
		c-0.2-2.4-0.4-4.2-0.8-5.5c-0.3-1.3-0.7-2.2-1-2.7c-0.4-0.5-0.8-0.7-1.2-0.7c-0.9,0-1.6,0.3-2.2,1c-0.6,0.6-1.2,1.4-1.6,2.3
		c-0.4,0.9-0.8,1.8-1,2.8c-0.3,1-0.5,1.8-0.6,2.4l-1-0.3C176,37.6,176.2,36.7,176.5,35.6z"/>
</g>
</svg>
